<?xml version="1.0" encoding="UTF-8"?>
<svg id="Layer_2" data-name="Layer 2" xmlns="http://www.w3.org/2000/svg" viewBox="0 0 1693.16 910.79">
  <defs>
    <style>
      .cls-1 {
        fill: #131d38;
      }

      .cls-1, .cls-2, .cls-3 {
        stroke-width: 0px;
      }

      .cls-2 {
        fill: #ff0;
      }

      .cls-3 {
        fill: #ff4b00;
      }
    </style>
  </defs>
  <g id="Logo_4" data-name="Logo 4">
    <g id="Graphic_Elements" data-name="Graphic Elements">
      <g>
        <g>
          <g>
            <path class="cls-1" d="M1285.48,365.42c-20.15-20.15-30.19-44.19-30.19-72.08s10.04-51.14,30.19-70.89c20.15-20.15,44.19-30.23,72.08-30.23s51.14,9.88,70.89,29.64c20.15,19,30.23,42.85,30.23,71.49s-10.08,51.93-30.23,72.08c-19.76,20.11-43.4,30.19-70.89,30.19s-51.93-10.08-72.08-30.19Z"/>
            <path class="cls-1" d="M1284.98,365.42c-20.15-20.15-30.19-44.19-30.19-72.08s10.04-51.14,30.19-70.89c20.15-20.15,44.19-30.23,72.08-30.23s51.14,9.88,70.89,29.64c20.15,19,30.23,42.85,30.23,71.49s-10.08,51.93-30.23,72.08c-19.76,20.11-43.4,30.19-70.89,30.19s-51.93-10.08-72.08-30.19Z"/>
            <path class="cls-1" d="M1284.48,365.42c-20.15-20.15-30.19-44.19-30.19-72.08s10.04-51.14,30.19-70.89c20.15-20.15,44.19-30.23,72.08-30.23s51.14,9.88,70.89,29.64c20.15,19,30.23,42.85,30.23,71.49s-10.08,51.93-30.23,72.08c-19.76,20.11-43.4,30.19-70.89,30.19s-51.93-10.08-72.08-30.19Z"/>
            <path class="cls-1" d="M1283.98,365.42c-20.15-20.15-30.19-44.19-30.19-72.08s10.04-51.14,30.19-70.89c20.15-20.15,44.19-30.23,72.08-30.23s51.14,9.88,70.89,29.64c20.15,19,30.23,42.85,30.23,71.49s-10.08,51.93-30.23,72.08c-19.76,20.11-43.4,30.19-70.89,30.19s-51.93-10.08-72.08-30.19Z"/>
            <path class="cls-1" d="M1283.48,365.42c-20.15-20.15-30.19-44.19-30.19-72.08s10.04-51.14,30.19-70.89c20.15-20.15,44.19-30.23,72.08-30.23s51.14,9.88,70.89,29.64c20.15,19,30.23,42.85,30.23,71.49s-10.08,51.93-30.23,72.08c-19.76,20.11-43.4,30.19-70.89,30.19s-51.93-10.08-72.08-30.19Z"/>
            <path class="cls-1" d="M1282.98,365.42c-20.15-20.15-30.19-44.19-30.19-72.08s10.04-51.14,30.19-70.89c20.15-20.15,44.19-30.23,72.08-30.23s51.14,9.88,70.89,29.64c20.15,19,30.23,42.85,30.23,71.49s-10.08,51.93-30.23,72.08c-19.76,20.11-43.4,30.19-70.89,30.19s-51.93-10.08-72.08-30.19Z"/>
            <path class="cls-1" d="M1282.48,365.42c-20.15-20.15-30.19-44.19-30.19-72.08s10.04-51.14,30.19-70.89c20.15-20.15,44.19-30.23,72.08-30.23s51.14,9.88,70.89,29.64c20.15,19,30.23,42.85,30.23,71.49s-10.08,51.93-30.23,72.08c-19.76,20.11-43.4,30.19-70.89,30.19s-51.93-10.08-72.08-30.19Z"/>
            <path class="cls-1" d="M1281.98,365.42c-20.15-20.15-30.19-44.19-30.19-72.08s10.04-51.14,30.19-70.89c20.15-20.15,44.19-30.23,72.08-30.23s51.14,9.88,70.89,29.64c20.15,19,30.23,42.85,30.23,71.49s-10.08,51.93-30.23,72.08c-19.76,20.11-43.4,30.19-70.89,30.19s-51.93-10.08-72.08-30.19Z"/>
            <path class="cls-1" d="M1281.48,365.42c-20.15-20.15-30.19-44.19-30.19-72.08s10.04-51.14,30.19-70.89c20.15-20.15,44.19-30.23,72.08-30.23s51.14,9.88,70.89,29.64c20.15,19,30.23,42.85,30.23,71.49s-10.08,51.93-30.23,72.08c-19.76,20.11-43.4,30.19-70.89,30.19s-51.93-10.08-72.08-30.19Z"/>
            <path class="cls-1" d="M1280.98,365.42c-20.15-20.15-30.19-44.19-30.19-72.08s10.04-51.14,30.19-70.89c20.15-20.15,44.19-30.23,72.08-30.23s51.14,9.88,70.89,29.64c20.15,19,30.23,42.85,30.23,71.49s-10.08,51.93-30.23,72.08c-19.76,20.11-43.4,30.19-70.89,30.19s-51.93-10.08-72.08-30.19Z"/>
            <path class="cls-1" d="M1280.48,365.42c-20.15-20.15-30.19-44.19-30.19-72.08s10.04-51.14,30.19-70.89c20.15-20.15,44.19-30.23,72.08-30.23s51.14,9.88,70.89,29.64c20.15,19,30.23,42.85,30.23,71.49s-10.08,51.93-30.23,72.08c-19.76,20.11-43.4,30.19-70.89,30.19s-51.93-10.08-72.08-30.19Z"/>
            <path class="cls-1" d="M1279.98,365.42c-20.15-20.15-30.19-44.19-30.19-72.08s10.04-51.14,30.19-70.89c20.15-20.15,44.19-30.23,72.08-30.23s51.14,9.88,70.89,29.64c20.15,19,30.23,42.85,30.23,71.49s-10.08,51.93-30.23,72.08c-19.76,20.11-43.4,30.19-70.89,30.19s-51.93-10.08-72.08-30.19Z"/>
            <path class="cls-1" d="M1279.48,365.42c-20.15-20.15-30.19-44.19-30.19-72.08s10.04-51.14,30.19-70.89c20.15-20.15,44.19-30.23,72.08-30.23s51.14,9.88,70.89,29.64c20.15,19,30.23,42.85,30.23,71.49s-10.08,51.93-30.23,72.08c-19.76,20.11-43.4,30.19-70.89,30.19s-51.93-10.08-72.08-30.19Z"/>
            <path class="cls-1" d="M1278.98,365.42c-20.15-20.15-30.19-44.19-30.19-72.08s10.04-51.14,30.19-70.89c20.15-20.15,44.19-30.23,72.08-30.23s51.14,9.88,70.89,29.64c20.15,19,30.23,42.85,30.23,71.49s-10.08,51.93-30.23,72.08c-19.76,20.11-43.4,30.19-70.89,30.19s-51.93-10.08-72.08-30.19Z"/>
            <path class="cls-1" d="M1278.48,365.42c-20.15-20.15-30.19-44.19-30.19-72.08s10.04-51.14,30.19-70.89c20.15-20.15,44.19-30.23,72.08-30.23s51.14,9.88,70.89,29.64c20.15,19,30.23,42.85,30.23,71.49s-10.08,51.93-30.23,72.08c-19.76,20.11-43.4,30.19-70.89,30.19s-51.93-10.08-72.08-30.19Z"/>
            <path class="cls-1" d="M1277.98,365.42c-20.15-20.15-30.19-44.19-30.19-72.08s10.04-51.14,30.19-70.89c20.15-20.15,44.19-30.23,72.08-30.23s51.14,9.88,70.89,29.64c20.15,19,30.23,42.85,30.23,71.49s-10.08,51.93-30.23,72.08c-19.76,20.11-43.4,30.19-70.89,30.19s-51.93-10.08-72.08-30.19Z"/>
            <path class="cls-1" d="M1277.48,365.42c-20.15-20.15-30.19-44.19-30.19-72.08s10.04-51.14,30.19-70.89c20.15-20.15,44.19-30.23,72.08-30.23s51.14,9.88,70.89,29.64c20.15,19,30.23,42.85,30.23,71.49s-10.08,51.93-30.23,72.08c-19.76,20.11-43.4,30.19-70.89,30.19s-51.93-10.08-72.08-30.19Z"/>
            <path class="cls-1" d="M1276.98,365.42c-20.15-20.15-30.19-44.19-30.19-72.08s10.04-51.14,30.19-70.89c20.15-20.15,44.19-30.23,72.08-30.23s51.14,9.88,70.89,29.64c20.15,19,30.23,42.85,30.23,71.49s-10.08,51.93-30.23,72.08c-19.76,20.11-43.4,30.19-70.89,30.19s-51.93-10.08-72.08-30.19Z"/>
            <path class="cls-1" d="M1276.48,365.42c-20.15-20.15-30.19-44.19-30.19-72.08s10.04-51.14,30.19-70.89c20.15-20.15,44.19-30.23,72.08-30.23s51.14,9.88,70.89,29.64c20.15,19,30.23,42.85,30.23,71.49s-10.08,51.93-30.23,72.08c-19.76,20.11-43.4,30.19-70.89,30.19s-51.93-10.08-72.08-30.19Z"/>
            <path class="cls-1" d="M1275.98,365.42c-20.15-20.15-30.19-44.19-30.19-72.08s10.04-51.14,30.19-70.89c20.15-20.15,44.19-30.23,72.08-30.23s51.14,9.88,70.89,29.64c20.15,19,30.23,42.85,30.23,71.49s-10.08,51.93-30.23,72.08c-19.76,20.11-43.4,30.19-70.89,30.19s-51.93-10.08-72.08-30.19Z"/>
            <path class="cls-1" d="M1275.48,365.42c-20.15-20.15-30.19-44.19-30.19-72.08s10.04-51.14,30.19-70.89c20.15-20.15,44.19-30.23,72.08-30.23s51.14,9.88,70.89,29.64c20.15,19,30.23,42.85,30.23,71.49s-10.08,51.93-30.23,72.08c-19.76,20.11-43.4,30.19-70.89,30.19s-51.93-10.08-72.08-30.19Z"/>
            <path class="cls-1" d="M1274.98,365.42c-20.15-20.15-30.19-44.19-30.19-72.08s10.04-51.14,30.19-70.89c20.15-20.15,44.19-30.23,72.08-30.23s51.14,9.88,70.89,29.64c20.15,19,30.23,42.85,30.23,71.49s-10.08,51.93-30.23,72.08c-19.76,20.11-43.4,30.19-70.89,30.19s-51.93-10.08-72.08-30.19Z"/>
            <path class="cls-1" d="M1274.48,365.42c-20.15-20.15-30.19-44.19-30.19-72.08s10.04-51.14,30.19-70.89c20.15-20.15,44.19-30.23,72.08-30.23s51.14,9.88,70.89,29.64c20.15,19,30.23,42.85,30.23,71.49s-10.08,51.93-30.23,72.08c-19.76,20.11-43.4,30.19-70.89,30.19s-51.93-10.08-72.08-30.19Z"/>
            <path class="cls-1" d="M1273.98,365.42c-20.15-20.15-30.19-44.19-30.19-72.08s10.04-51.14,30.19-70.89c20.15-20.15,44.19-30.23,72.08-30.23s51.14,9.88,70.89,29.64c20.15,19,30.23,42.85,30.23,71.49s-10.08,51.93-30.23,72.08c-19.76,20.11-43.4,30.19-70.89,30.19s-51.93-10.08-72.08-30.19Z"/>
            <path class="cls-1" d="M1273.48,365.42c-20.15-20.15-30.19-44.19-30.19-72.08s10.04-51.14,30.19-70.89c20.15-20.15,44.19-30.23,72.08-30.23s51.14,9.88,70.89,29.64c20.15,19,30.23,42.85,30.23,71.49s-10.08,51.93-30.23,72.08c-19.76,20.11-43.4,30.19-70.89,30.19s-51.93-10.08-72.08-30.19Z"/>
            <path class="cls-1" d="M1272.98,365.42c-20.15-20.15-30.19-44.19-30.19-72.08s10.04-51.14,30.19-70.89c20.15-20.15,44.19-30.23,72.08-30.23s51.14,9.88,70.89,29.64c20.15,19,30.23,42.85,30.23,71.49s-10.08,51.93-30.23,72.08c-19.76,20.11-43.4,30.19-70.89,30.19s-51.93-10.08-72.08-30.19Z"/>
            <path class="cls-1" d="M1272.48,365.42c-20.15-20.15-30.19-44.19-30.19-72.08s10.04-51.14,30.19-70.89c20.15-20.15,44.19-30.23,72.08-30.23s51.14,9.88,70.89,29.64c20.15,19,30.23,42.85,30.23,71.49s-10.08,51.93-30.23,72.08c-19.76,20.11-43.4,30.19-70.89,30.19s-51.93-10.08-72.08-30.19Z"/>
            <path class="cls-1" d="M1271.98,365.42c-20.15-20.15-30.19-44.19-30.19-72.08s10.04-51.14,30.19-70.89c20.15-20.15,44.19-30.23,72.08-30.23s51.14,9.88,70.89,29.64c20.15,19,30.23,42.85,30.23,71.49s-10.08,51.93-30.23,72.08c-19.76,20.11-43.4,30.19-70.89,30.19s-51.93-10.08-72.08-30.19Z"/>
            <path class="cls-1" d="M1271.48,365.42c-20.15-20.15-30.19-44.19-30.19-72.08s10.04-51.14,30.19-70.89c20.15-20.15,44.19-30.23,72.08-30.23s51.14,9.88,70.89,29.64c20.15,19,30.23,42.85,30.23,71.49s-10.08,51.93-30.23,72.08c-19.76,20.11-43.4,30.19-70.89,30.19s-51.93-10.08-72.08-30.19Z"/>
            <path class="cls-1" d="M1270.98,365.42c-20.15-20.15-30.19-44.19-30.19-72.08s10.04-51.14,30.19-70.89c20.15-20.15,44.19-30.23,72.08-30.23s51.14,9.88,70.89,29.64c20.15,19,30.23,42.85,30.23,71.49s-10.08,51.93-30.23,72.08c-19.76,20.11-43.4,30.19-70.89,30.19s-51.93-10.08-72.08-30.19Z"/>
            <path class="cls-1" d="M1270.48,365.42c-20.15-20.15-30.19-44.19-30.19-72.08s10.04-51.14,30.19-70.89c20.15-20.15,44.19-30.23,72.08-30.23s51.14,9.88,70.89,29.64c20.15,19,30.23,42.85,30.23,71.49s-10.08,51.93-30.23,72.08c-19.76,20.11-43.4,30.19-70.89,30.19s-51.93-10.08-72.08-30.19Z"/>
            <path class="cls-1" d="M1269.98,365.42c-20.15-20.15-30.19-44.19-30.19-72.08s10.04-51.14,30.19-70.89c20.15-20.15,44.19-30.23,72.08-30.23s51.14,9.88,70.89,29.64c20.15,19,30.23,42.85,30.23,71.49s-10.08,51.93-30.23,72.08c-19.76,20.11-43.4,30.19-70.89,30.19s-51.93-10.08-72.08-30.19Z"/>
            <path class="cls-1" d="M1269.48,365.42c-20.15-20.15-30.19-44.19-30.19-72.08s10.04-51.14,30.19-70.89c20.15-20.15,44.19-30.23,72.08-30.23s51.14,9.88,70.89,29.64c20.15,19,30.23,42.85,30.23,71.49s-10.08,51.93-30.23,72.08c-19.76,20.11-43.4,30.19-70.89,30.19s-51.93-10.08-72.08-30.19Z"/>
            <path class="cls-1" d="M1268.98,365.42c-20.15-20.15-30.19-44.19-30.19-72.08s10.04-51.14,30.19-70.89c20.15-20.15,44.19-30.23,72.08-30.23s51.14,9.88,70.89,29.64c20.15,19,30.23,42.85,30.23,71.49s-10.08,51.93-30.23,72.08c-19.76,20.11-43.4,30.19-70.89,30.19s-51.93-10.08-72.08-30.19Z"/>
            <path class="cls-1" d="M1268.48,365.42c-20.15-20.15-30.19-44.19-30.19-72.08s10.04-51.14,30.19-70.89c20.15-20.15,44.19-30.23,72.08-30.23s51.14,9.88,70.89,29.64c20.15,19,30.23,42.85,30.23,71.49s-10.08,51.93-30.23,72.08c-19.76,20.11-43.4,30.19-70.89,30.19s-51.93-10.08-72.08-30.19Z"/>
            <path class="cls-1" d="M1267.98,365.42c-20.15-20.15-30.19-44.19-30.19-72.08s10.04-51.14,30.19-70.89c20.15-20.15,44.19-30.23,72.08-30.23s51.14,9.88,70.89,29.64c20.15,19,30.23,42.85,30.23,71.49s-10.08,51.93-30.23,72.08c-19.76,20.11-43.4,30.19-70.89,30.19s-51.93-10.08-72.08-30.19Z"/>
            <path class="cls-1" d="M1267.48,365.42c-20.15-20.15-30.19-44.19-30.19-72.08s10.04-51.14,30.19-70.89c20.15-20.15,44.19-30.23,72.08-30.23s51.14,9.88,70.89,29.64c20.15,19,30.23,42.85,30.23,71.49s-10.08,51.93-30.23,72.08c-19.76,20.11-43.4,30.19-70.89,30.19s-51.93-10.08-72.08-30.19Z"/>
            <path class="cls-1" d="M1266.98,365.42c-20.15-20.15-30.19-44.19-30.19-72.08s10.04-51.14,30.19-70.89c20.15-20.15,44.19-30.23,72.08-30.23s51.14,9.88,70.89,29.64c20.15,19,30.23,42.85,30.23,71.49s-10.08,51.93-30.23,72.08c-19.76,20.11-43.4,30.19-70.89,30.19s-51.93-10.08-72.08-30.19Z"/>
            <path class="cls-1" d="M1266.48,365.42c-20.15-20.15-30.19-44.19-30.19-72.08s10.04-51.14,30.19-70.89c20.15-20.15,44.19-30.23,72.08-30.23s51.14,9.88,70.89,29.64c20.15,19,30.23,42.85,30.23,71.49s-10.08,51.93-30.23,72.08c-19.76,20.11-43.4,30.19-70.89,30.19s-51.93-10.08-72.08-30.19Z"/>
            <path class="cls-1" d="M1265.98,365.42c-20.15-20.15-30.19-44.19-30.19-72.08s10.04-51.14,30.19-70.89c20.15-20.15,44.19-30.23,72.08-30.23s51.14,9.88,70.89,29.64c20.15,19,30.23,42.85,30.23,71.49s-10.08,51.93-30.23,72.08c-19.76,20.11-43.4,30.19-70.89,30.19s-51.93-10.08-72.08-30.19Z"/>
            <path class="cls-1" d="M1265.48,365.42c-20.15-20.15-30.19-44.19-30.19-72.08s10.04-51.14,30.19-70.89c20.15-20.15,44.19-30.23,72.08-30.23s51.14,9.88,70.89,29.64c20.15,19,30.23,42.85,30.23,71.49s-10.08,51.93-30.23,72.08c-19.76,20.11-43.4,30.19-70.89,30.19s-51.93-10.08-72.08-30.19Z"/>
            <path class="cls-1" d="M1264.98,365.42c-20.15-20.15-30.19-44.19-30.19-72.08s10.04-51.14,30.19-70.89c20.15-20.15,44.19-30.23,72.08-30.23s51.14,9.88,70.89,29.64c20.15,19,30.23,42.85,30.23,71.49s-10.08,51.93-30.23,72.08c-19.76,20.11-43.4,30.19-70.89,30.19s-51.93-10.08-72.08-30.19Z"/>
            <path class="cls-1" d="M1264.48,365.42c-20.15-20.15-30.19-44.19-30.19-72.08s10.04-51.14,30.19-70.89c20.15-20.15,44.19-30.23,72.08-30.23s51.14,9.88,70.89,29.64c20.15,19,30.23,42.85,30.23,71.49s-10.08,51.93-30.23,72.08c-19.76,20.11-43.4,30.19-70.89,30.19s-51.93-10.08-72.08-30.19Z"/>
            <path class="cls-1" d="M1263.98,365.42c-20.15-20.15-30.19-44.19-30.19-72.08s10.04-51.14,30.19-70.89c20.15-20.15,44.19-30.23,72.08-30.23s51.14,9.88,70.89,29.64c20.15,19,30.23,42.85,30.23,71.49s-10.08,51.93-30.23,72.08c-19.76,20.11-43.4,30.19-70.89,30.19s-51.93-10.08-72.08-30.19Z"/>
            <path class="cls-1" d="M1263.48,365.42c-20.15-20.15-30.19-44.19-30.19-72.08s10.04-51.14,30.19-70.89c20.15-20.15,44.19-30.23,72.08-30.23s51.14,9.88,70.89,29.64c20.15,19,30.23,42.85,30.23,71.49s-10.08,51.93-30.23,72.08c-19.76,20.11-43.4,30.19-70.89,30.19s-51.93-10.08-72.08-30.19Z"/>
            <path class="cls-1" d="M1262.98,365.42c-20.15-20.15-30.19-44.19-30.19-72.08s10.04-51.14,30.19-70.89c20.15-20.15,44.19-30.23,72.08-30.23s51.14,9.88,70.89,29.64c20.15,19,30.23,42.85,30.23,71.49s-10.08,51.93-30.23,72.08c-19.76,20.11-43.4,30.19-70.89,30.19s-51.93-10.08-72.08-30.19Z"/>
            <path class="cls-1" d="M1262.48,365.42c-20.15-20.15-30.19-44.19-30.19-72.08s10.04-51.14,30.19-70.89c20.15-20.15,44.19-30.23,72.08-30.23s51.14,9.88,70.89,29.64c20.15,19,30.23,42.85,30.23,71.49s-10.08,51.93-30.23,72.08c-19.76,20.11-43.4,30.19-70.89,30.19s-51.93-10.08-72.08-30.19Z"/>
            <path class="cls-1" d="M1261.98,365.42c-20.15-20.15-30.19-44.19-30.19-72.08s10.04-51.14,30.19-70.89c20.15-20.15,44.19-30.23,72.08-30.23s51.14,9.88,70.89,29.64c20.15,19,30.23,42.85,30.23,71.49s-10.08,51.93-30.23,72.08c-19.76,20.11-43.4,30.19-70.89,30.19s-51.93-10.08-72.08-30.19Z"/>
            <path class="cls-1" d="M1261.48,365.42c-20.15-20.15-30.19-44.19-30.19-72.08s10.04-51.14,30.19-70.89c20.15-20.15,44.19-30.23,72.08-30.23s51.14,9.88,70.89,29.64c20.15,19,30.23,42.85,30.23,71.49s-10.08,51.93-30.23,72.08c-19.76,20.11-43.4,30.19-70.89,30.19s-51.93-10.08-72.08-30.19Z"/>
            <path class="cls-1" d="M1260.98,365.42c-20.15-20.15-30.19-44.19-30.19-72.08s10.04-51.14,30.19-70.89c20.15-20.15,44.19-30.23,72.08-30.23s51.14,9.88,70.89,29.64c20.15,19,30.23,42.85,30.23,71.49s-10.08,51.93-30.23,72.08c-19.76,20.11-43.4,30.19-70.89,30.19s-51.93-10.08-72.08-30.19Z"/>
            <path class="cls-1" d="M1260.48,365.42c-20.15-20.15-30.19-44.19-30.19-72.08s10.04-51.14,30.19-70.89c20.15-20.15,44.19-30.23,72.08-30.23s51.14,9.88,70.89,29.64c20.15,19,30.23,42.85,30.23,71.49s-10.08,51.93-30.23,72.08c-19.76,20.11-43.4,30.19-70.89,30.19s-51.93-10.08-72.08-30.19Z"/>
          </g>
          <path class="cls-3" d="M1256.98,365.42c-20.15-20.15-30.19-44.19-30.19-72.08s10.04-51.14,30.19-70.89c20.15-20.15,44.19-30.23,72.08-30.23s51.14,9.88,70.89,29.64c20.15,19,30.23,42.85,30.23,71.49s-10.08,51.93-30.23,72.08c-19.76,20.11-43.4,30.19-70.89,30.19s-51.93-10.08-72.08-30.19Z"/>
        </g>
        <g>
          <g>
            <g>
              <g>
                <path class="cls-1" d="M1666.12,471.72c-18.03-20.82-40.56-31.24-67.6-31.24-23.96,0-45.39,8.57-64.3,25.71-18.91,17.15-34.62,42.35-47.15,75.61h-1.03v-126.45c-23.32,9.33-51.01,16.38-82.94,21.18-31.97,4.8-65.99,7.19-102.04,7.19-38.51,0-74.76-2.44-108.78-7.39-33.98-4.94-62.67-11.94-86.03-20.98V25.51h-379.96l-160.64,184.48L405.54,25.51H25v885.28h391.95v-443.31h297.34v443.31h771.75v-196.8c.76-18.74,3.07-35.31,6.97-49.71,4.82-17.91,12.52-32.2,23.08-42.86,23.51,27.95,50.99,41.9,82.43,41.9,27.7,0,50.34-10.29,67.92-30.84,17.81-20.57,26.72-47.75,26.72-81.53s-9.02-58.66-27.04-79.23Z"/>
                <path class="cls-1" d="M1665.62,471.22c-18.03-20.82-40.56-31.24-67.6-31.24-23.96,0-45.39,8.57-64.3,25.71-18.91,17.15-34.62,42.35-47.15,75.61h-1.03v-126.45c-23.32,9.33-51.01,16.38-82.94,21.18-31.97,4.8-65.99,7.19-102.04,7.19-38.51,0-74.76-2.44-108.78-7.39-33.98-4.94-62.67-11.94-86.03-20.98V25.01h-379.96l-160.64,184.48L405.04,25.01H24.5v885.28h391.95v-443.31h297.34v443.31h771.75v-196.8c.76-18.74,3.07-35.31,6.97-49.71,4.82-17.91,12.52-32.2,23.08-42.86,23.51,27.95,50.99,41.9,82.43,41.9,27.7,0,50.34-10.29,67.92-30.84,17.81-20.57,26.72-47.75,26.72-81.53s-9.02-58.66-27.04-79.23Z"/>
                <path class="cls-1" d="M1665.12,470.72c-18.03-20.82-40.56-31.24-67.6-31.24-23.96,0-45.39,8.57-64.3,25.71-18.91,17.15-34.62,42.35-47.15,75.61h-1.03v-126.45c-23.32,9.33-51.01,16.38-82.94,21.18-31.97,4.8-65.99,7.19-102.04,7.19-38.51,0-74.76-2.44-108.78-7.39-33.98-4.94-62.67-11.94-86.03-20.98V24.51h-379.96l-160.64,184.48L404.54,24.51H24v885.28h391.95v-443.31h297.34v443.31h771.75v-196.8c.76-18.74,3.07-35.31,6.97-49.71,4.82-17.91,12.52-32.2,23.08-42.86,23.51,27.95,50.99,41.9,82.43,41.9,27.7,0,50.34-10.29,67.92-30.84,17.81-20.57,26.72-47.75,26.72-81.53s-9.02-58.66-27.04-79.23Z"/>
                <path class="cls-1" d="M1664.62,470.22c-18.03-20.82-40.56-31.24-67.6-31.24-23.96,0-45.39,8.57-64.3,25.71-18.91,17.15-34.62,42.35-47.15,75.61h-1.03v-126.45c-23.32,9.33-51.01,16.38-82.94,21.18-31.97,4.8-65.99,7.19-102.04,7.19-38.51,0-74.76-2.44-108.78-7.39-33.98-4.94-62.67-11.94-86.03-20.98V24.01h-379.96l-160.64,184.48L404.04,24.01H23.5v885.28h391.95v-443.31h297.34v443.31h771.75v-196.8c.76-18.74,3.07-35.31,6.97-49.71,4.82-17.91,12.52-32.2,23.08-42.86,23.51,27.95,50.99,41.9,82.43,41.9,27.7,0,50.34-10.29,67.92-30.84,17.81-20.57,26.72-47.75,26.72-81.53s-9.02-58.66-27.04-79.23Z"/>
                <path class="cls-1" d="M1664.12,469.72c-18.03-20.82-40.56-31.24-67.6-31.24-23.96,0-45.39,8.57-64.3,25.71-18.91,17.15-34.62,42.35-47.15,75.61h-1.03v-126.45c-23.32,9.33-51.01,16.38-82.94,21.18-31.97,4.8-65.99,7.19-102.04,7.19-38.51,0-74.76-2.44-108.78-7.39-33.98-4.94-62.67-11.94-86.03-20.98V23.51h-379.96l-160.64,184.48L403.54,23.51H23v885.28h391.95v-443.31h297.34v443.31h771.75v-196.8c.76-18.74,3.07-35.31,6.97-49.71,4.82-17.91,12.52-32.2,23.08-42.86,23.51,27.95,50.99,41.9,82.43,41.9,27.7,0,50.34-10.29,67.92-30.84,17.81-20.57,26.72-47.75,26.72-81.53s-9.02-58.66-27.04-79.23Z"/>
                <path class="cls-1" d="M1663.62,469.22c-18.03-20.82-40.56-31.24-67.6-31.24-23.96,0-45.39,8.57-64.3,25.71-18.91,17.15-34.62,42.35-47.15,75.61h-1.03v-126.45c-23.32,9.33-51.01,16.38-82.94,21.18-31.97,4.8-65.99,7.19-102.04,7.19-38.51,0-74.76-2.44-108.78-7.39-33.98-4.94-62.67-11.94-86.03-20.98V23.01h-379.96l-160.64,184.48L403.04,23.01H22.5v885.28h391.95v-443.31h297.34v443.31h771.75v-196.8c.76-18.74,3.07-35.31,6.97-49.71,4.82-17.91,12.52-32.2,23.08-42.86,23.51,27.95,50.99,41.9,82.43,41.9,27.7,0,50.34-10.29,67.92-30.84,17.81-20.57,26.72-47.75,26.72-81.53s-9.02-58.66-27.04-79.23Z"/>
                <path class="cls-1" d="M1663.12,468.72c-18.03-20.82-40.56-31.24-67.6-31.24-23.96,0-45.39,8.57-64.3,25.71-18.91,17.15-34.62,42.35-47.15,75.61h-1.03v-126.45c-23.32,9.33-51.01,16.38-82.94,21.18-31.97,4.8-65.99,7.19-102.04,7.19-38.51,0-74.76-2.44-108.78-7.39-33.98-4.94-62.67-11.94-86.03-20.98V22.51h-379.96l-160.64,184.48L402.54,22.51H22v885.28h391.95v-443.31h297.34v443.31h771.75v-196.8c.76-18.74,3.07-35.31,6.97-49.71,4.82-17.91,12.52-32.2,23.08-42.86,23.51,27.95,50.99,41.9,82.43,41.9,27.7,0,50.34-10.29,67.92-30.84,17.81-20.57,26.72-47.75,26.72-81.53s-9.02-58.66-27.04-79.23Z"/>
                <path class="cls-1" d="M1662.62,468.22c-18.03-20.82-40.56-31.24-67.6-31.24-23.96,0-45.39,8.57-64.3,25.71-18.91,17.15-34.62,42.35-47.15,75.61h-1.03v-126.45c-23.32,9.33-51.01,16.38-82.94,21.18-31.97,4.8-65.99,7.19-102.04,7.19-38.51,0-74.76-2.44-108.78-7.39-33.98-4.94-62.67-11.94-86.03-20.98V22.01h-379.96l-160.64,184.48L402.04,22.01H21.5v885.28h391.95v-443.31h297.34v443.31h771.75v-196.8c.76-18.74,3.07-35.31,6.97-49.71,4.82-17.91,12.52-32.2,23.08-42.86,23.51,27.95,50.99,41.9,82.43,41.9,27.7,0,50.34-10.29,67.92-30.84,17.81-20.57,26.72-47.75,26.72-81.53s-9.02-58.66-27.04-79.23Z"/>
                <path class="cls-1" d="M1662.12,467.72c-18.03-20.82-40.56-31.24-67.6-31.24-23.96,0-45.39,8.57-64.3,25.71-18.91,17.15-34.62,42.35-47.15,75.61h-1.03v-126.45c-23.32,9.33-51.01,16.38-82.94,21.18-31.97,4.8-65.99,7.19-102.04,7.19-38.51,0-74.76-2.44-108.78-7.39-33.98-4.94-62.67-11.94-86.03-20.98V21.51h-379.96l-160.64,184.48L401.54,21.51H21v885.28h391.95v-443.31h297.34v443.31h771.75v-196.8c.76-18.74,3.07-35.31,6.97-49.71,4.82-17.91,12.52-32.2,23.08-42.86,23.51,27.95,50.99,41.9,82.43,41.9,27.7,0,50.34-10.29,67.92-30.84,17.81-20.57,26.72-47.75,26.72-81.53s-9.02-58.66-27.04-79.23Z"/>
                <path class="cls-1" d="M1661.62,467.22c-18.03-20.82-40.56-31.24-67.6-31.24-23.96,0-45.39,8.57-64.3,25.71-18.91,17.15-34.62,42.35-47.15,75.61h-1.03v-126.45c-23.32,9.33-51.01,16.38-82.94,21.18-31.97,4.8-65.99,7.19-102.04,7.19-38.51,0-74.76-2.44-108.78-7.39-33.98-4.94-62.67-11.94-86.03-20.98V21.01h-379.96l-160.64,184.48L401.04,21.01H20.5v885.28h391.95v-443.31h297.34v443.31h771.75v-196.8c.76-18.74,3.07-35.31,6.97-49.71,4.82-17.91,12.52-32.2,23.08-42.86,23.51,27.95,50.99,41.9,82.43,41.9,27.7,0,50.34-10.29,67.92-30.84,17.81-20.57,26.72-47.75,26.72-81.53s-9.02-58.66-27.04-79.23Z"/>
                <path class="cls-1" d="M1661.12,466.72c-18.03-20.82-40.56-31.24-67.6-31.24-23.96,0-45.39,8.57-64.3,25.71-18.91,17.15-34.62,42.35-47.15,75.61h-1.03v-126.45c-23.32,9.33-51.01,16.38-82.94,21.18-31.97,4.8-65.99,7.19-102.04,7.19-38.51,0-74.76-2.44-108.78-7.39-33.98-4.94-62.67-11.94-86.03-20.98V20.51h-379.96l-160.64,184.48L400.54,20.51H20v885.28h391.95v-443.31h297.34v443.31h771.75v-196.8c.76-18.74,3.07-35.31,6.97-49.71,4.82-17.91,12.52-32.2,23.08-42.86,23.51,27.95,50.99,41.9,82.43,41.9,27.7,0,50.34-10.29,67.92-30.84,17.81-20.57,26.72-47.75,26.72-81.53s-9.02-58.66-27.04-79.23Z"/>
                <path class="cls-1" d="M1660.62,466.22c-18.03-20.82-40.56-31.24-67.6-31.24-23.96,0-45.39,8.57-64.3,25.71-18.91,17.15-34.62,42.35-47.15,75.61h-1.03v-126.45c-23.32,9.33-51.01,16.38-82.94,21.18-31.97,4.8-65.99,7.19-102.04,7.19-38.51,0-74.76-2.44-108.78-7.39-33.98-4.94-62.67-11.94-86.03-20.98V20.01h-379.96l-160.64,184.48L400.04,20.01H19.5v885.28h391.95v-443.31h297.34v443.31h771.75v-196.8c.76-18.74,3.07-35.31,6.97-49.71,4.82-17.91,12.52-32.2,23.08-42.86,23.51,27.95,50.99,41.9,82.43,41.9,27.7,0,50.34-10.29,67.92-30.84,17.81-20.57,26.72-47.75,26.72-81.53s-9.02-58.66-27.04-79.23Z"/>
                <path class="cls-1" d="M1660.12,465.72c-18.03-20.82-40.56-31.24-67.6-31.24-23.96,0-45.39,8.57-64.3,25.71-18.91,17.15-34.62,42.35-47.15,75.61h-1.03v-126.45c-23.32,9.33-51.01,16.38-82.94,21.18-31.97,4.8-65.99,7.19-102.04,7.19-38.51,0-74.76-2.44-108.78-7.39-33.98-4.94-62.67-11.94-86.03-20.98V19.51h-379.96l-160.64,184.48L399.54,19.51H19v885.28h391.95v-443.31h297.34v443.31h771.75v-196.8c.76-18.74,3.07-35.31,6.97-49.71,4.82-17.91,12.52-32.2,23.08-42.86,23.51,27.95,50.99,41.9,82.43,41.9,27.7,0,50.34-10.29,67.92-30.84,17.81-20.57,26.72-47.75,26.72-81.53s-9.02-58.66-27.04-79.23Z"/>
                <path class="cls-1" d="M1659.62,465.22c-18.03-20.82-40.56-31.24-67.6-31.24-23.96,0-45.39,8.57-64.3,25.71-18.91,17.15-34.62,42.35-47.15,75.61h-1.03v-126.45c-23.32,9.33-51.01,16.38-82.94,21.18-31.97,4.8-65.99,7.19-102.04,7.19-38.51,0-74.76-2.44-108.78-7.39-33.98-4.94-62.67-11.94-86.03-20.98V19.01h-379.96l-160.64,184.48L399.04,19.01H18.5v885.28h391.95v-443.31h297.34v443.31h771.75v-196.8c.76-18.74,3.07-35.31,6.97-49.71,4.82-17.91,12.52-32.2,23.08-42.86,23.51,27.95,50.99,41.9,82.43,41.9,27.7,0,50.34-10.29,67.92-30.84,17.81-20.57,26.72-47.75,26.72-81.53s-9.02-58.66-27.04-79.23Z"/>
                <path class="cls-1" d="M1659.12,464.72c-18.03-20.82-40.56-31.24-67.6-31.24-23.96,0-45.39,8.57-64.3,25.71-18.91,17.15-34.62,42.35-47.15,75.61h-1.03v-126.45c-23.32,9.33-51.01,16.38-82.94,21.18-31.97,4.8-65.99,7.19-102.04,7.19-38.51,0-74.76-2.44-108.78-7.39-33.98-4.94-62.67-11.94-86.03-20.98V18.51h-379.96l-160.64,184.48L398.54,18.51H18v885.28h391.95v-443.31h297.34v443.31h771.75v-196.8c.76-18.74,3.07-35.31,6.97-49.71,4.82-17.91,12.52-32.2,23.08-42.86,23.51,27.95,50.99,41.9,82.43,41.9,27.7,0,50.34-10.29,67.92-30.84,17.81-20.57,26.72-47.75,26.72-81.53s-9.02-58.66-27.04-79.23Z"/>
                <path class="cls-1" d="M1658.62,464.22c-18.03-20.82-40.56-31.24-67.6-31.24-23.96,0-45.39,8.57-64.3,25.71-18.91,17.15-34.62,42.35-47.15,75.61h-1.03v-126.45c-23.32,9.33-51.01,16.38-82.94,21.18-31.97,4.8-65.99,7.19-102.04,7.19-38.51,0-74.76-2.44-108.78-7.39-33.98-4.94-62.67-11.94-86.03-20.98V18.01h-379.96l-160.64,184.48L398.04,18.01H17.5v885.28h391.95v-443.31h297.34v443.31h771.75v-196.8c.76-18.74,3.07-35.31,6.97-49.71,4.82-17.91,12.52-32.2,23.08-42.86,23.51,27.95,50.99,41.9,82.43,41.9,27.7,0,50.34-10.29,67.92-30.84,17.81-20.57,26.72-47.75,26.72-81.53s-9.02-58.66-27.04-79.23Z"/>
                <path class="cls-1" d="M1658.12,463.72c-18.03-20.82-40.56-31.24-67.6-31.24-23.96,0-45.39,8.57-64.3,25.71-18.91,17.15-34.62,42.35-47.15,75.61h-1.03v-126.45c-23.32,9.33-51.01,16.38-82.94,21.18-31.97,4.8-65.99,7.19-102.04,7.19-38.51,0-74.76-2.44-108.78-7.39-33.98-4.94-62.67-11.94-86.03-20.98V17.51h-379.96l-160.64,184.48L397.54,17.51H17v885.28h391.95v-443.31h297.34v443.31h771.75v-196.8c.76-18.74,3.07-35.31,6.97-49.71,4.82-17.91,12.52-32.2,23.08-42.86,23.51,27.95,50.99,41.9,82.43,41.9,27.7,0,50.34-10.29,67.92-30.84,17.81-20.57,26.72-47.75,26.72-81.53s-9.02-58.66-27.04-79.23Z"/>
                <path class="cls-1" d="M1657.62,463.22c-18.03-20.82-40.56-31.24-67.6-31.24-23.96,0-45.39,8.57-64.3,25.71-18.91,17.15-34.62,42.35-47.15,75.61h-1.03v-126.45c-23.32,9.33-51.01,16.38-82.94,21.18-31.97,4.8-65.99,7.19-102.04,7.19-38.51,0-74.76-2.44-108.78-7.39-33.98-4.94-62.67-11.94-86.03-20.98V17.01h-379.96l-160.64,184.48L397.04,17.01H16.5v885.28h391.95v-443.31h297.34v443.31h771.75v-196.8c.76-18.74,3.07-35.31,6.97-49.71,4.82-17.91,12.52-32.2,23.08-42.86,23.51,27.95,50.99,41.9,82.43,41.9,27.7,0,50.34-10.29,67.92-30.84,17.81-20.57,26.72-47.75,26.72-81.53s-9.02-58.66-27.04-79.23Z"/>
                <path class="cls-1" d="M1657.12,462.72c-18.03-20.82-40.56-31.24-67.6-31.24-23.96,0-45.39,8.57-64.3,25.71-18.91,17.15-34.62,42.35-47.15,75.61h-1.03v-126.45c-23.32,9.33-51.01,16.38-82.94,21.18-31.97,4.8-65.99,7.19-102.04,7.19-38.51,0-74.76-2.44-108.78-7.39-33.98-4.94-62.67-11.94-86.03-20.98V16.51h-379.96l-160.64,184.48L396.54,16.51H16v885.28h391.95v-443.31h297.34v443.31h771.75v-196.8c.76-18.74,3.07-35.31,6.97-49.71,4.82-17.91,12.52-32.2,23.08-42.86,23.51,27.95,50.99,41.9,82.43,41.9,27.7,0,50.34-10.29,67.92-30.84,17.81-20.57,26.72-47.75,26.72-81.53s-9.02-58.66-27.04-79.23Z"/>
                <path class="cls-1" d="M1656.62,462.22c-18.03-20.82-40.56-31.24-67.6-31.24-23.96,0-45.39,8.57-64.3,25.71-18.91,17.15-34.62,42.35-47.15,75.61h-1.03v-126.45c-23.32,9.33-51.01,16.38-82.94,21.18-31.97,4.8-65.99,7.19-102.04,7.19-38.51,0-74.76-2.44-108.78-7.39-33.98-4.94-62.67-11.94-86.03-20.98V16.01h-379.96l-160.64,184.48L396.04,16.01H15.5v885.28h391.95v-443.31h297.34v443.31h771.75v-196.8c.76-18.74,3.07-35.31,6.97-49.71,4.82-17.91,12.52-32.2,23.08-42.86,23.51,27.95,50.99,41.9,82.43,41.9,27.7,0,50.34-10.29,67.92-30.84,17.81-20.57,26.72-47.75,26.72-81.53s-9.02-58.66-27.04-79.23Z"/>
                <path class="cls-1" d="M1656.12,461.72c-18.03-20.82-40.56-31.24-67.6-31.24-23.96,0-45.39,8.57-64.3,25.71-18.91,17.15-34.62,42.35-47.15,75.61h-1.03v-126.45c-23.32,9.33-51.01,16.38-82.94,21.18-31.97,4.8-65.99,7.19-102.04,7.19-38.51,0-74.76-2.44-108.78-7.39-33.98-4.94-62.67-11.94-86.03-20.98V15.51h-379.96l-160.64,184.48L395.54,15.51H15v885.28h391.95v-443.31h297.34v443.31h771.75v-196.8c.76-18.74,3.07-35.31,6.97-49.71,4.82-17.91,12.52-32.2,23.08-42.86,23.51,27.95,50.99,41.9,82.43,41.9,27.7,0,50.34-10.29,67.92-30.84,17.81-20.57,26.72-47.75,26.72-81.53s-9.02-58.66-27.04-79.23Z"/>
                <path class="cls-1" d="M1655.62,461.22c-18.03-20.82-40.56-31.24-67.6-31.24-23.96,0-45.39,8.57-64.3,25.71-18.91,17.15-34.62,42.35-47.15,75.61h-1.03v-126.45c-23.32,9.33-51.01,16.38-82.94,21.18-31.97,4.8-65.99,7.19-102.04,7.19-38.51,0-74.76-2.44-108.78-7.39-33.98-4.94-62.67-11.94-86.03-20.98V15.01h-379.96l-160.64,184.48L395.04,15.01H14.5v885.28h391.95v-443.31h297.34v443.31h771.75v-196.8c.76-18.74,3.07-35.31,6.97-49.71,4.82-17.91,12.52-32.2,23.08-42.86,23.51,27.95,50.99,41.9,82.43,41.9,27.7,0,50.34-10.29,67.92-30.84,17.81-20.57,26.72-47.75,26.72-81.53s-9.02-58.66-27.04-79.23Z"/>
                <path class="cls-1" d="M1655.12,460.72c-18.03-20.82-40.56-31.24-67.6-31.24-23.96,0-45.39,8.57-64.3,25.71-18.91,17.15-34.62,42.35-47.15,75.61h-1.03v-126.45c-23.32,9.33-51.01,16.38-82.94,21.18-31.97,4.8-65.99,7.19-102.04,7.19-38.51,0-74.76-2.44-108.78-7.39-33.98-4.94-62.67-11.94-86.03-20.98V14.51h-379.96l-160.64,184.48L394.54,14.51H14v885.28h391.95v-443.31h297.34v443.31h771.75v-196.8c.76-18.74,3.07-35.31,6.97-49.71,4.82-17.91,12.52-32.2,23.08-42.86,23.51,27.95,50.99,41.9,82.43,41.9,27.7,0,50.34-10.29,67.92-30.84,17.81-20.57,26.72-47.75,26.72-81.53s-9.02-58.66-27.04-79.23Z"/>
                <path class="cls-1" d="M1654.62,460.22c-18.03-20.82-40.56-31.24-67.6-31.24-23.96,0-45.39,8.57-64.3,25.71-18.91,17.15-34.62,42.35-47.15,75.61h-1.03v-126.45c-23.32,9.33-51.01,16.38-82.94,21.18-31.97,4.8-65.99,7.19-102.04,7.19-38.51,0-74.76-2.44-108.78-7.39-33.98-4.94-62.67-11.94-86.03-20.98V14.01h-379.96l-160.64,184.48L394.04,14.01H13.5v885.28h391.95v-443.31h297.34v443.31h771.75v-196.8c.76-18.74,3.07-35.31,6.97-49.71,4.82-17.91,12.52-32.2,23.08-42.86,23.51,27.95,50.99,41.9,82.43,41.9,27.7,0,50.34-10.29,67.92-30.84,17.81-20.57,26.72-47.75,26.72-81.53s-9.02-58.66-27.04-79.23Z"/>
                <path class="cls-1" d="M1654.12,459.72c-18.03-20.82-40.56-31.24-67.6-31.24-23.96,0-45.39,8.57-64.3,25.71-18.91,17.15-34.62,42.35-47.15,75.61h-1.03v-126.45c-23.32,9.33-51.01,16.38-82.94,21.18-31.97,4.8-65.99,7.19-102.04,7.19-38.51,0-74.76-2.44-108.78-7.39-33.98-4.94-62.67-11.94-86.03-20.98V13.51h-379.96l-160.64,184.48L393.54,13.51H13v885.28h391.95v-443.31h297.34v443.31h771.75v-196.8c.76-18.74,3.07-35.31,6.97-49.71,4.82-17.91,12.52-32.2,23.08-42.86,23.51,27.95,50.99,41.9,82.43,41.9,27.7,0,50.34-10.29,67.92-30.84,17.81-20.57,26.72-47.75,26.72-81.53s-9.02-58.66-27.04-79.23Z"/>
                <path class="cls-1" d="M1653.62,459.22c-18.03-20.82-40.56-31.24-67.6-31.24-23.96,0-45.39,8.57-64.3,25.71-18.91,17.15-34.62,42.35-47.15,75.61h-1.03v-126.45c-23.32,9.33-51.01,16.38-82.94,21.18-31.97,4.8-65.99,7.19-102.04,7.19-38.51,0-74.76-2.44-108.78-7.39-33.98-4.94-62.67-11.94-86.03-20.98V13.01h-379.96l-160.64,184.48L393.04,13.01H12.5v885.28h391.95v-443.31h297.34v443.31h771.75v-196.8c.76-18.74,3.07-35.31,6.97-49.71,4.82-17.91,12.52-32.2,23.08-42.86,23.51,27.95,50.99,41.9,82.43,41.9,27.7,0,50.34-10.29,67.92-30.84,17.81-20.57,26.72-47.75,26.72-81.53s-9.02-58.66-27.04-79.23Z"/>
                <path class="cls-1" d="M1653.12,458.72c-18.03-20.82-40.56-31.24-67.6-31.24-23.96,0-45.39,8.57-64.3,25.71-18.91,17.15-34.62,42.35-47.15,75.61h-1.03v-126.45c-23.32,9.33-51.01,16.38-82.94,21.18-31.97,4.8-65.99,7.19-102.04,7.19-38.51,0-74.76-2.44-108.78-7.39-33.98-4.94-62.67-11.94-86.03-20.98V12.51h-379.96l-160.64,184.48L392.54,12.51H12v885.28h391.95v-443.31h297.34v443.31h771.75v-196.8c.76-18.74,3.07-35.31,6.97-49.71,4.82-17.91,12.52-32.2,23.08-42.86,23.51,27.95,50.99,41.9,82.43,41.9,27.7,0,50.34-10.29,67.92-30.84,17.81-20.57,26.72-47.75,26.72-81.53s-9.02-58.66-27.04-79.23Z"/>
                <path class="cls-1" d="M1652.62,458.22c-18.03-20.82-40.56-31.24-67.6-31.24-23.96,0-45.39,8.57-64.3,25.71-18.91,17.15-34.62,42.35-47.15,75.61h-1.03v-126.45c-23.32,9.33-51.01,16.38-82.94,21.18-31.97,4.8-65.99,7.19-102.04,7.19-38.51,0-74.76-2.44-108.78-7.39-33.98-4.94-62.67-11.94-86.03-20.98V12.01h-379.96l-160.64,184.48L392.04,12.01H11.5v885.28h391.95v-443.31h297.34v443.31h771.75v-196.8c.76-18.74,3.07-35.31,6.97-49.71,4.82-17.91,12.52-32.2,23.08-42.86,23.51,27.95,50.99,41.9,82.43,41.9,27.7,0,50.34-10.29,67.92-30.84,17.81-20.57,26.72-47.75,26.72-81.53s-9.02-58.66-27.04-79.23Z"/>
                <path class="cls-1" d="M1652.12,457.72c-18.03-20.82-40.56-31.24-67.6-31.24-23.96,0-45.39,8.57-64.3,25.71-18.91,17.15-34.62,42.35-47.15,75.61h-1.03v-126.45c-23.32,9.33-51.01,16.38-82.94,21.18-31.97,4.8-65.99,7.19-102.04,7.19-38.51,0-74.76-2.44-108.78-7.39-33.98-4.94-62.67-11.94-86.03-20.98V11.51h-379.96l-160.64,184.48L391.54,11.51H11v885.28h391.95v-443.31h297.34v443.31h771.75v-196.8c.76-18.74,3.07-35.31,6.97-49.71,4.82-17.91,12.52-32.2,23.08-42.86,23.51,27.95,50.99,41.9,82.43,41.9,27.7,0,50.34-10.29,67.92-30.84,17.81-20.57,26.72-47.75,26.72-81.53s-9.02-58.66-27.04-79.23Z"/>
                <path class="cls-1" d="M1651.62,457.22c-18.03-20.82-40.56-31.24-67.6-31.24-23.96,0-45.39,8.57-64.3,25.71-18.91,17.15-34.62,42.35-47.15,75.61h-1.03v-126.45c-23.32,9.33-51.01,16.38-82.94,21.18-31.97,4.8-65.99,7.19-102.04,7.19-38.51,0-74.76-2.44-108.78-7.39-33.98-4.94-62.67-11.94-86.03-20.98V11.01h-379.96l-160.64,184.48L391.04,11.01H10.5v885.28h391.95v-443.31h297.34v443.31h771.75v-196.8c.76-18.74,3.07-35.31,6.97-49.71,4.82-17.91,12.52-32.2,23.08-42.86,23.51,27.95,50.99,41.9,82.43,41.9,27.7,0,50.34-10.29,67.92-30.84,17.81-20.57,26.72-47.75,26.72-81.53s-9.02-58.66-27.04-79.23Z"/>
                <path class="cls-1" d="M1651.12,456.72c-18.03-20.82-40.56-31.24-67.6-31.24-23.96,0-45.39,8.57-64.3,25.71-18.91,17.15-34.62,42.35-47.15,75.61h-1.03v-126.45c-23.32,9.33-51.01,16.38-82.94,21.18-31.97,4.8-65.99,7.19-102.04,7.19-38.51,0-74.76-2.44-108.78-7.39-33.98-4.94-62.67-11.94-86.03-20.98V10.51h-379.96l-160.64,184.48L390.54,10.51H10v885.28h391.95v-443.31h297.34v443.31h771.75v-196.8c.76-18.74,3.07-35.31,6.97-49.71,4.82-17.91,12.52-32.2,23.08-42.86,23.51,27.95,50.99,41.9,82.43,41.9,27.7,0,50.34-10.29,67.92-30.84,17.81-20.57,26.72-47.75,26.72-81.53s-9.02-58.66-27.04-79.23Z"/>
                <path class="cls-1" d="M1650.62,456.22c-18.03-20.82-40.56-31.24-67.6-31.24-23.96,0-45.39,8.57-64.3,25.71-18.91,17.15-34.62,42.35-47.15,75.61h-1.03v-126.45c-23.32,9.33-51.01,16.38-82.94,21.18-31.97,4.8-65.99,7.19-102.04,7.19-38.51,0-74.76-2.44-108.78-7.39-33.98-4.94-62.67-11.94-86.03-20.98V10.01h-379.96l-160.64,184.48L390.04,10.01H9.5v885.28h391.95v-443.31h297.34v443.31h771.75v-196.8c.76-18.74,3.07-35.31,6.97-49.71,4.82-17.91,12.52-32.2,23.08-42.86,23.51,27.95,50.99,41.9,82.43,41.9,27.7,0,50.34-10.29,67.92-30.84,17.81-20.57,26.72-47.75,26.72-81.53s-9.02-58.66-27.04-79.23Z"/>
                <path class="cls-1" d="M1650.12,455.72c-18.03-20.82-40.56-31.24-67.6-31.24-23.96,0-45.39,8.57-64.3,25.71-18.91,17.15-34.62,42.35-47.15,75.61h-1.03v-126.45c-23.32,9.33-51.01,16.38-82.94,21.18-31.97,4.8-65.99,7.19-102.04,7.19-38.51,0-74.76-2.44-108.78-7.39-33.98-4.94-62.67-11.94-86.03-20.98V9.51h-379.96l-160.64,184.48L389.54,9.51H9v885.28h391.95v-443.31h297.34v443.31h771.75v-196.8c.76-18.74,3.07-35.31,6.97-49.71,4.82-17.91,12.52-32.2,23.08-42.86,23.51,27.95,50.99,41.9,82.43,41.9,27.7,0,50.34-10.29,67.92-30.84,17.81-20.57,26.72-47.75,26.72-81.53s-9.02-58.66-27.04-79.23Z"/>
                <path class="cls-1" d="M1649.62,455.22c-18.03-20.82-40.56-31.24-67.6-31.24-23.96,0-45.39,8.57-64.3,25.71-18.91,17.15-34.62,42.35-47.15,75.61h-1.03v-126.45c-23.32,9.33-51.01,16.38-82.94,21.18-31.97,4.8-65.99,7.19-102.04,7.19-38.51,0-74.76-2.44-108.78-7.39-33.98-4.94-62.67-11.94-86.03-20.98V9.01h-379.96l-160.64,184.48L389.04,9.01H8.5v885.28h391.95v-443.31h297.34v443.31h771.75v-196.8c.76-18.74,3.07-35.31,6.97-49.71,4.82-17.91,12.52-32.2,23.08-42.86,23.51,27.95,50.99,41.9,82.43,41.9,27.7,0,50.34-10.29,67.92-30.84,17.81-20.57,26.72-47.75,26.72-81.53s-9.02-58.66-27.04-79.23Z"/>
                <path class="cls-1" d="M1649.12,454.72c-18.03-20.82-40.56-31.24-67.6-31.24-23.96,0-45.39,8.57-64.3,25.71-18.91,17.15-34.62,42.35-47.15,75.61h-1.03v-126.45c-23.32,9.33-51.01,16.38-82.94,21.18-31.97,4.8-65.99,7.19-102.04,7.19-38.51,0-74.76-2.44-108.78-7.39-33.98-4.94-62.67-11.94-86.03-20.98V8.51h-379.96l-160.64,184.48L388.54,8.51H8v885.28h391.95v-443.31h297.34v443.31h771.75v-196.8c.76-18.74,3.07-35.31,6.97-49.71,4.82-17.91,12.52-32.2,23.08-42.86,23.51,27.95,50.99,41.9,82.43,41.9,27.7,0,50.34-10.29,67.92-30.84,17.81-20.57,26.72-47.75,26.72-81.53s-9.02-58.66-27.04-79.23Z"/>
                <path class="cls-1" d="M1648.62,454.22c-18.03-20.82-40.56-31.24-67.6-31.24-23.96,0-45.39,8.57-64.3,25.71-18.91,17.15-34.62,42.35-47.15,75.61h-1.03v-126.45c-23.32,9.33-51.01,16.38-82.94,21.18-31.97,4.8-65.99,7.19-102.04,7.19-38.51,0-74.76-2.44-108.78-7.39-33.98-4.94-62.67-11.94-86.03-20.98V8.01h-379.96l-160.64,184.48L388.04,8.01H7.5v885.28h391.95v-443.31h297.34v443.31h771.75v-196.8c.76-18.74,3.07-35.31,6.97-49.71,4.82-17.91,12.52-32.2,23.08-42.86,23.51,27.95,50.99,41.9,82.43,41.9,27.7,0,50.34-10.29,67.92-30.84,17.81-20.57,26.72-47.75,26.72-81.53s-9.02-58.66-27.04-79.23Z"/>
                <path class="cls-1" d="M1648.12,453.72c-18.03-20.82-40.56-31.24-67.6-31.24-23.96,0-45.39,8.57-64.3,25.71-18.91,17.15-34.62,42.35-47.15,75.61h-1.03v-126.45c-23.32,9.33-51.01,16.38-82.94,21.18-31.97,4.8-65.99,7.19-102.04,7.19-38.51,0-74.76-2.44-108.78-7.39-33.98-4.94-62.67-11.94-86.03-20.98V7.51h-379.96l-160.64,184.48L387.54,7.51H7v885.28h391.95v-443.31h297.34v443.31h771.75v-196.8c.76-18.74,3.07-35.31,6.97-49.71,4.82-17.91,12.52-32.2,23.08-42.86,23.51,27.95,50.99,41.9,82.43,41.9,27.7,0,50.34-10.29,67.92-30.84,17.81-20.57,26.72-47.75,26.72-81.53s-9.02-58.66-27.04-79.23Z"/>
                <path class="cls-1" d="M1647.62,453.22c-18.03-20.82-40.56-31.24-67.6-31.24-23.96,0-45.39,8.57-64.3,25.71-18.91,17.15-34.62,42.35-47.15,75.61h-1.03v-126.45c-23.32,9.33-51.01,16.38-82.94,21.18-31.97,4.8-65.99,7.19-102.04,7.19-38.51,0-74.76-2.44-108.78-7.39-33.98-4.94-62.67-11.94-86.03-20.98V7.01h-379.96l-160.64,184.48L387.04,7.01H6.5v885.28h391.95v-443.31h297.34v443.31h771.75v-196.8c.76-18.74,3.07-35.31,6.97-49.71,4.82-17.91,12.52-32.2,23.08-42.86,23.51,27.95,50.99,41.9,82.43,41.9,27.7,0,50.34-10.29,67.92-30.84,17.81-20.57,26.72-47.75,26.72-81.53s-9.02-58.66-27.04-79.23Z"/>
                <path class="cls-1" d="M1647.12,452.72c-18.03-20.82-40.56-31.24-67.6-31.24-23.96,0-45.39,8.57-64.3,25.71-18.91,17.15-34.62,42.35-47.15,75.61h-1.03v-126.45c-23.32,9.33-51.01,16.38-82.94,21.18-31.97,4.8-65.99,7.19-102.04,7.19-38.51,0-74.76-2.44-108.78-7.39-33.98-4.94-62.67-11.94-86.03-20.98V6.51h-379.96l-160.64,184.48L386.54,6.51H6v885.28h391.95v-443.31h297.34v443.31h771.75v-196.8c.76-18.74,3.07-35.31,6.97-49.71,4.82-17.91,12.52-32.2,23.08-42.86,23.51,27.95,50.99,41.9,82.43,41.9,27.7,0,50.34-10.29,67.92-30.84,17.81-20.57,26.72-47.75,26.72-81.53s-9.02-58.66-27.04-79.23Z"/>
                <path class="cls-1" d="M1646.62,452.22c-18.03-20.82-40.56-31.24-67.6-31.24-23.96,0-45.39,8.57-64.3,25.71-18.91,17.15-34.62,42.35-47.15,75.61h-1.03v-126.45c-23.32,9.33-51.01,16.38-82.94,21.18-31.97,4.8-65.99,7.19-102.04,7.19-38.51,0-74.76-2.44-108.78-7.39-33.98-4.94-62.67-11.94-86.03-20.98V6.01h-379.96l-160.64,184.48L386.04,6.01H5.5v885.28h391.95v-443.31h297.34v443.31h771.75v-196.8c.76-18.74,3.07-35.31,6.97-49.71,4.82-17.91,12.52-32.2,23.08-42.86,23.51,27.95,50.99,41.9,82.43,41.9,27.7,0,50.34-10.29,67.92-30.84,17.81-20.57,26.72-47.75,26.72-81.53s-9.02-58.66-27.04-79.23Z"/>
                <path class="cls-1" d="M1646.12,451.72c-18.03-20.82-40.56-31.24-67.6-31.24-23.96,0-45.39,8.57-64.3,25.71-18.91,17.15-34.62,42.35-47.15,75.61h-1.03v-126.45c-23.32,9.33-51.01,16.38-82.94,21.18-31.97,4.8-65.99,7.19-102.04,7.19-38.51,0-74.76-2.44-108.78-7.39-33.98-4.94-62.67-11.94-86.03-20.98V5.51h-379.96l-160.64,184.48L385.54,5.51H5v885.28h391.95v-443.31h297.34v443.31h771.75v-196.8c.76-18.74,3.07-35.31,6.97-49.71,4.82-17.91,12.52-32.2,23.08-42.86,23.51,27.95,50.99,41.9,82.43,41.9,27.7,0,50.34-10.29,67.92-30.84,17.81-20.57,26.72-47.75,26.72-81.53s-9.02-58.66-27.04-79.23Z"/>
                <path class="cls-1" d="M1645.62,451.22c-18.03-20.82-40.56-31.24-67.6-31.24-23.96,0-45.39,8.57-64.3,25.71-18.91,17.15-34.62,42.35-47.15,75.61h-1.03v-126.45c-23.32,9.33-51.01,16.38-82.94,21.18-31.97,4.8-65.99,7.19-102.04,7.19-38.51,0-74.76-2.44-108.78-7.39-33.98-4.94-62.67-11.94-86.03-20.98V5.01h-379.96l-160.64,184.48L385.04,5.01H4.5v885.28h391.95v-443.31h297.34v443.31h771.75v-196.8c.76-18.74,3.07-35.31,6.97-49.71,4.82-17.91,12.52-32.2,23.08-42.86,23.51,27.95,50.99,41.9,82.43,41.9,27.7,0,50.34-10.29,67.92-30.84,17.81-20.57,26.72-47.75,26.72-81.53s-9.02-58.66-27.04-79.23Z"/>
                <path class="cls-1" d="M1645.12,450.72c-18.03-20.82-40.56-31.24-67.6-31.24-23.96,0-45.39,8.57-64.3,25.71-18.91,17.15-34.62,42.35-47.15,75.61h-1.03v-126.45c-23.32,9.33-51.01,16.38-82.94,21.18-31.97,4.8-65.99,7.19-102.04,7.19-38.51,0-74.76-2.44-108.78-7.39-33.98-4.94-62.67-11.94-86.03-20.98V4.51h-379.96l-160.64,184.48L384.54,4.51H4v885.28h391.95v-443.31h297.34v443.31h771.75v-196.8c.76-18.74,3.07-35.31,6.97-49.71,4.82-17.91,12.52-32.2,23.08-42.86,23.51,27.95,50.99,41.9,82.43,41.9,27.7,0,50.34-10.29,67.92-30.84,17.81-20.57,26.72-47.75,26.72-81.53s-9.02-58.66-27.04-79.23Z"/>
                <path class="cls-1" d="M1644.62,450.22c-18.03-20.82-40.56-31.24-67.6-31.24-23.96,0-45.39,8.57-64.3,25.71-18.91,17.15-34.62,42.35-47.15,75.61h-1.03v-126.45c-23.32,9.33-51.01,16.38-82.94,21.18-31.97,4.8-65.99,7.19-102.04,7.19-38.51,0-74.76-2.44-108.78-7.39-33.98-4.94-62.67-11.94-86.03-20.98V4.01h-379.96l-160.64,184.48L384.04,4.01H3.5v885.28h391.95v-443.31h297.34v443.31h771.75v-196.8c.76-18.74,3.07-35.31,6.97-49.71,4.82-17.91,12.52-32.2,23.08-42.86,23.51,27.95,50.99,41.9,82.43,41.9,27.7,0,50.34-10.29,67.92-30.84,17.81-20.57,26.72-47.75,26.72-81.53s-9.02-58.66-27.04-79.23Z"/>
                <path class="cls-1" d="M1644.12,449.72c-18.03-20.82-40.56-31.24-67.6-31.24-23.96,0-45.39,8.57-64.3,25.71-18.91,17.15-34.62,42.35-47.15,75.61h-1.03v-126.45c-23.32,9.33-51.01,16.38-82.94,21.18-31.97,4.8-65.99,7.19-102.04,7.19-38.51,0-74.76-2.44-108.78-7.39-33.98-4.94-62.67-11.94-86.03-20.98V3.51h-379.96l-160.64,184.48L383.54,3.51H3v885.28h391.95v-443.31h297.34v443.31h771.75v-196.8c.76-18.74,3.07-35.31,6.97-49.71,4.82-17.91,12.52-32.2,23.08-42.86,23.51,27.95,50.99,41.9,82.43,41.9,27.7,0,50.34-10.29,67.92-30.84,17.81-20.57,26.72-47.75,26.72-81.53s-9.02-58.66-27.04-79.23Z"/>
                <path class="cls-1" d="M1643.62,449.22c-18.03-20.82-40.56-31.24-67.6-31.24-23.96,0-45.39,8.57-64.3,25.71-18.91,17.15-34.62,42.35-47.15,75.61h-1.03v-126.45c-23.32,9.33-51.01,16.38-82.94,21.18-31.97,4.8-65.99,7.19-102.04,7.19-38.51,0-74.76-2.44-108.78-7.39-33.98-4.94-62.67-11.94-86.03-20.98V3.01h-379.96l-160.64,184.48L383.04,3.01H2.5v885.28h391.95v-443.31h297.34v443.31h771.75v-196.8c.76-18.74,3.07-35.31,6.97-49.71,4.82-17.91,12.52-32.2,23.08-42.86,23.51,27.95,50.99,41.9,82.43,41.9,27.7,0,50.34-10.29,67.92-30.84,17.81-20.57,26.72-47.75,26.72-81.53s-9.02-58.66-27.04-79.23Z"/>
                <path class="cls-1" d="M1643.12,448.72c-18.03-20.82-40.56-31.24-67.6-31.24-23.96,0-45.39,8.57-64.3,25.71-18.91,17.15-34.62,42.35-47.15,75.61h-1.03v-126.45c-23.32,9.33-51.01,16.38-82.94,21.18-31.97,4.8-65.99,7.19-102.04,7.19-38.51,0-74.76-2.44-108.78-7.39-33.98-4.94-62.67-11.94-86.03-20.98V2.51h-379.96l-160.64,184.48L382.54,2.51H2v885.28h391.95v-443.31h297.34v443.31h771.75v-196.8c.76-18.74,3.07-35.31,6.97-49.71,4.82-17.91,12.52-32.2,23.08-42.86,23.51,27.95,50.99,41.9,82.43,41.9,27.7,0,50.34-10.29,67.92-30.84,17.81-20.57,26.72-47.75,26.72-81.53s-9.02-58.66-27.04-79.23Z"/>
                <path class="cls-1" d="M1642.62,448.22c-18.03-20.82-40.56-31.24-67.6-31.24-23.96,0-45.39,8.57-64.3,25.71-18.91,17.15-34.62,42.35-47.15,75.61h-1.03v-126.45c-23.32,9.33-51.01,16.38-82.94,21.18-31.97,4.8-65.99,7.19-102.04,7.19-38.51,0-74.76-2.44-108.78-7.39-33.98-4.94-62.67-11.94-86.03-20.98V2.01h-379.96l-160.64,184.48L382.04,2.01H1.5v885.28h391.95v-443.31h297.34v443.31h771.75v-196.8c.76-18.74,3.07-35.31,6.97-49.71,4.82-17.91,12.52-32.2,23.08-42.86,23.51,27.95,50.99,41.9,82.43,41.9,27.7,0,50.34-10.29,67.92-30.84,17.81-20.57,26.72-47.75,26.72-81.53s-9.02-58.66-27.04-79.23Z"/>
                <path class="cls-1" d="M1642.12,447.72c-18.03-20.82-40.56-31.24-67.6-31.24-23.96,0-45.39,8.57-64.3,25.71-18.91,17.15-34.62,42.35-47.15,75.61h-1.03v-126.45c-23.32,9.33-51.01,16.38-82.94,21.18-31.97,4.8-65.99,7.19-102.04,7.19-38.51,0-74.76-2.44-108.78-7.39-33.98-4.94-62.67-11.94-86.03-20.98V1.51h-379.96l-160.64,184.48L381.54,1.51H1v885.28h391.95v-443.31h297.34v443.31h771.75v-196.8c.76-18.74,3.07-35.31,6.97-49.71,4.82-17.91,12.52-32.2,23.08-42.86,23.51,27.95,50.99,41.9,82.43,41.9,27.7,0,50.34-10.29,67.92-30.84,17.81-20.57,26.72-47.75,26.72-81.53s-9.02-58.66-27.04-79.23Z"/>
                <path class="cls-1" d="M1641.62,447.22c-18.03-20.82-40.56-31.24-67.6-31.24-23.96,0-45.39,8.57-64.3,25.71-18.91,17.15-34.62,42.35-47.15,75.61h-1.03v-126.45c-23.32,9.33-51.01,16.38-82.94,21.18-31.97,4.8-65.99,7.19-102.04,7.19-38.51,0-74.76-2.44-108.78-7.39-33.98-4.94-62.67-11.94-86.03-20.98V1.01h-379.96l-160.64,184.48L381.04,1.01H.5v885.28h391.95v-443.31h297.34v443.31h771.75v-196.8c.76-18.74,3.07-35.31,6.97-49.71,4.82-17.91,12.52-32.2,23.08-42.86,23.51,27.95,50.99,41.9,82.43,41.9,27.7,0,50.34-10.29,67.92-30.84,17.81-20.57,26.72-47.75,26.72-81.53s-9.02-58.66-27.04-79.23Z"/>
                <path class="cls-1" d="M1641.12,446.72c-18.03-20.82-40.56-31.24-67.6-31.24-23.96,0-45.39,8.57-64.3,25.71-18.91,17.15-34.62,42.35-47.15,75.61h-1.03v-126.45c-23.32,9.33-51.01,16.38-82.94,21.18-31.97,4.8-65.99,7.19-102.04,7.19-38.51,0-74.76-2.44-108.78-7.39-33.98-4.94-62.67-11.94-86.03-20.98V.51h-379.96l-160.64,184.48L380.54.51H0v885.28h391.95v-443.31h297.34v443.31h771.75v-196.8c.76-18.74,3.07-35.31,6.97-49.71,4.82-17.91,12.52-32.2,23.08-42.86,23.51,27.95,50.99,41.9,82.43,41.9,27.7,0,50.34-10.29,67.92-30.84,17.81-20.57,26.72-47.75,26.72-81.53s-9.02-58.66-27.04-79.23Z"/>
              </g>
              <path class="cls-3" d="M1641.12,446.72c-18.03-20.82-40.56-31.24-67.6-31.24-23.96,0-45.39,8.57-64.3,25.71-18.91,17.15-34.62,42.35-47.15,75.61h-1.03v-126.45c-23.32,9.33-51.01,16.38-82.94,21.18-31.97,4.8-65.99,7.19-102.04,7.19-38.51,0-74.76-2.44-108.78-7.39-33.98-4.94-62.67-11.94-86.03-20.98V.51h-379.96l-160.64,184.48L380.54.51H0v885.28h391.95v-443.31h297.34v443.31h771.75v-196.8c.76-18.74,3.07-35.31,6.97-49.71,4.82-17.91,12.52-32.2,23.08-42.86,23.51,27.95,50.99,41.9,82.43,41.9,27.7,0,50.34-10.29,67.92-30.84,17.81-20.57,26.72-47.75,26.72-81.53s-9.02-58.66-27.04-79.23Z"/>
            </g>
            <g>
              <g>
                <polygon class="cls-1" points="543.54 616.24 692.01 444.97 395.05 444.97 543.54 616.24"/>
                <polygon class="cls-1" points="543.04 615.74 691.51 444.47 394.55 444.47 543.04 615.74"/>
                <polygon class="cls-1" points="542.54 615.24 691.01 443.97 394.05 443.97 542.54 615.24"/>
                <polygon class="cls-1" points="542.04 614.74 690.51 443.47 393.55 443.47 542.04 614.74"/>
                <polygon class="cls-1" points="541.54 614.24 690.01 442.97 393.05 442.97 541.54 614.24"/>
                <polygon class="cls-1" points="541.04 613.74 689.51 442.47 392.55 442.47 541.04 613.74"/>
              </g>
              <polygon class="cls-2" points="541.04 613.74 689.51 442.47 392.55 442.47 541.04 613.74"/>
            </g>
          </g>
          <g>
            <path class="cls-1" d="M1462.69,887.39h-94.23v-13.72c-6.71,4.98-14.18,8.74-22.41,11.28-8.54,2.64-16.37,3.96-23.48,3.96-13.83,0-25.52-4.52-35.07-13.57-9.35-9.15-14.03-20.63-14.03-34.46,0-15.55,5.79-28.31,17.38-38.27,11.59-10.06,26.73-15.09,45.44-15.09,5.49,0,10.93.36,16.31,1.07,5.39.71,10.67,1.78,15.86,3.2,0-4.37-.89-8.26-2.67-11.66-1.78-3.4-4.3-6.25-7.55-8.54-3.25-2.29-7.17-4.01-11.74-5.18-4.57-1.17-9.71-1.75-15.4-1.75-9.05,0-17.79,1.17-26.22,3.51-4.07,1.12-8.31,2.62-12.73,4.5-4.42,1.88-9.07,4.09-13.95,6.63v-55.19c1.73-1.01,4.12-2.26,7.17-3.74,3.05-1.47,6.86-3.18,11.44-5.11,4.57-1.93,9.43-3.68,14.56-5.26,5.13-1.58,10.65-2.92,16.54-4.04,11.69-2.44,25.26-3.66,40.71-3.66,32.93,0,56.82,7.07,71.66,21.19,14.94,14.03,22.41,34.31,22.41,60.83v103.07ZM1353.83,851.86c5.69,0,10.57-1.68,14.64-5.03v-25.62c-3.25-1.01-5.97-1.75-8.16-2.21-2.19-.46-4.65-.69-7.39-.69-5.59,0-10.12,1.45-13.57,4.35-3.46,2.9-5.18,6.78-5.18,11.66s1.88,9.15,5.64,12.5c3.76,3.35,8.44,5.03,14.03,5.03Z"/>
            <path class="cls-1" d="M897.94,491.78c30.46,0,58.53,4.92,84.23,14.75,25.7,9.83,47.8,23.53,66.3,41.08,18.5,17.56,32.94,38.5,43.3,62.82,10.36,24.32,15.55,50.87,15.55,79.63s-5.13,54.88-15.39,78.99c-10.26,24.11-24.59,44.95-42.99,62.5-18.4,17.56-40.45,31.25-66.15,41.08-25.7,9.83-53.99,14.75-84.86,14.75-38.92,0-74.45-8.14-106.6-24.43-31.72-16.28-56.68-39.34-74.87-69.16-17.98-30.03-26.97-64.61-26.97-103.74s8.77-72.86,26.33-103.11c17.77-30.24,42.4-53.62,73.92-70.11,31.51-16.71,67.57-25.06,108.18-25.06ZM897.94,729.72c13.32,0,23.9-3.91,31.72-11.74,7.82-7.82,11.74-18.4,11.74-31.72s-3.97-23.95-11.9-31.88c-7.93-7.93-18.56-11.9-31.88-11.9-6.34,0-12.11,1.06-17.29,3.17-5.19,2.12-9.63,5.13-13.32,9.04-3.7,3.92-6.61,8.57-8.72,13.96-2.12,5.39-3.17,11.26-3.17,17.61,0,12.9,3.97,23.37,11.9,31.41,7.93,8.04,18.24,12.06,30.93,12.06Z"/>
            <path class="cls-1" d="M882.68,0c37.96,0,72.14,8.91,102.55,26.73,30.61,17.6,54.28,43.34,71.02,77.21,16.94,34.1,25.41,72.71,25.01,115.82v13.22h-193.07c3.26,9.55,7.85,18.52,13.77,26.54,5.92,8.03,12.86,14.85,20.82,20.46,7.96,5.61,16.68,9.9,26.17,12.87,9.49,2.97,19.64,4.45,30.46,4.45,10,0,19.9-.99,29.69-2.97s19.03-4.78,27.7-8.41c8.67-3.63,16.78-8.14,24.34-13.53,7.55-5.39,14.28-11.49,21.47-18.31v69.62c-23.1,30.58-48.82,52.85-78.4,66.82-29.59,13.97-63.47,20.95-101.63,20.95-21.23.22-41.28-1.93-60.15-6.43-18.88-4.51-36.27-11.05-52.19-19.63-15.92-8.58-30.15-19.08-42.7-31.51-12.55-12.43-23.16-26.4-31.84-41.91-8.68-15.51-15.26-32.5-19.74-50.98-4.49-18.48-6.63-38.06-6.43-58.74,0-38.94,8.06-73.69,24.18-104.27,16.32-31.02,39.08-54.99,68.26-71.93,29.59-17.38,63.16-26.07,100.71-26.07ZM877.17,162.7h89.08c-.61-19.35-5.05-34.7-13.32-46.03-8.26-11.33-19.24-16.99-32.91-16.99-12.24,0-22.45,5.61-30.61,16.83-8.16,10.78-12.24,24.75-12.24,41.91v4.29Z"/>
          </g>
        </g>
      </g>
    </g>
  </g>
</svg>